<mxfile host="app.diagrams.net" agent="Mozilla/5.0 (Windows NT 10.0; Win64; x64) AppleWebKit/537.36 (KHTML, like Gecko) Chrome/127.0.0.0 Safari/537.36" version="24.7.7">
  <diagram name="Página-1" id="GcWsTzdbwd09QUfBEnsd">
    <mxGraphModel grid="1" page="1" gridSize="10" guides="1" tooltips="1" connect="1" arrows="1" fold="1" pageScale="1" pageWidth="1169" pageHeight="827" math="0" shadow="0">
      <root>
        <mxCell id="0" />
        <mxCell id="1" parent="0" />
        <mxCell id="oitGwTNRk-InASJFJmFo-6" style="edgeStyle=orthogonalEdgeStyle;rounded=0;orthogonalLoop=1;jettySize=auto;html=1;entryX=0.5;entryY=0;entryDx=0;entryDy=0;" edge="1" parent="1" source="NEni8pJmY9ni_NIbmqV8-3" target="oitGwTNRk-InASJFJmFo-2">
          <mxGeometry relative="1" as="geometry" />
        </mxCell>
        <mxCell id="NEni8pJmY9ni_NIbmqV8-3" value="&lt;div&gt;&lt;br&gt;&lt;/div&gt;&lt;div&gt;&lt;br&gt;&lt;/div&gt;cadeia nome,sobrenome&lt;div&gt;inteiro contaCaracteres&lt;/div&gt;&lt;div&gt;logica valida&lt;/div&gt;&lt;div&gt;cadeia perguntar&lt;/div&gt;&lt;div&gt;cadeia nomeCompleto&lt;/div&gt;&lt;div&gt;&lt;br&gt;&lt;/div&gt;&lt;div&gt;&lt;br&gt;&lt;div&gt;&lt;br&gt;&lt;/div&gt;&lt;/div&gt;" style="rounded=0;whiteSpace=wrap;html=1;" vertex="1" parent="1">
          <mxGeometry x="453.75" y="30" width="212.5" height="110" as="geometry" />
        </mxCell>
        <mxCell id="NEni8pJmY9ni_NIbmqV8-5" value="&amp;nbsp; &amp;nbsp; &amp;nbsp;Olá,&amp;nbsp; &amp;nbsp;seja muito bem-vindo(a) ao programa Poseidon!" style="shape=display;whiteSpace=wrap;html=1;size=0.21739130434782608;" vertex="1" parent="1">
          <mxGeometry x="445" y="280" width="230" height="80" as="geometry" />
        </mxCell>
        <mxCell id="NEni8pJmY9ni_NIbmqV8-7" value="Programa Poseidon!&lt;div&gt;&lt;br&gt;&lt;div&gt;&amp;nbsp; &amp;nbsp; Por favor, informe seu nome:&amp;nbsp;&lt;/div&gt;&lt;/div&gt;" style="shape=display;whiteSpace=wrap;html=1;size=0.21739130434782608;" vertex="1" parent="1">
          <mxGeometry x="445" y="530" width="230" height="80" as="geometry" />
        </mxCell>
        <mxCell id="NEni8pJmY9ni_NIbmqV8-11" value="nome" style="shape=manualInput;whiteSpace=wrap;html=1;align=center;" vertex="1" parent="1">
          <mxGeometry x="530" y="620" width="80" height="80" as="geometry" />
        </mxCell>
        <mxCell id="NEni8pJmY9ni_NIbmqV8-12" value="&lt;div&gt;&lt;br&gt;&lt;/div&gt;sobrenome" style="shape=manualInput;whiteSpace=wrap;html=1;align=center;" vertex="1" parent="1">
          <mxGeometry x="510" y="830" width="80" height="80" as="geometry" />
        </mxCell>
        <mxCell id="NEni8pJmY9ni_NIbmqV8-16" style="edgeStyle=orthogonalEdgeStyle;rounded=0;orthogonalLoop=1;jettySize=auto;html=1;entryX=0.378;entryY=0.225;entryDx=0;entryDy=0;entryPerimeter=0;" edge="1" parent="1" source="NEni8pJmY9ni_NIbmqV8-7" target="NEni8pJmY9ni_NIbmqV8-11">
          <mxGeometry relative="1" as="geometry" />
        </mxCell>
        <mxCell id="NEni8pJmY9ni_NIbmqV8-18" value="&lt;div&gt;&lt;div&gt;Agora, informe seu sobrenome:&lt;/div&gt;&lt;/div&gt;" style="shape=display;whiteSpace=wrap;html=1;size=0.21739130434782608;" vertex="1" parent="1">
          <mxGeometry x="445" y="730" width="230" height="80" as="geometry" />
        </mxCell>
        <mxCell id="NEni8pJmY9ni_NIbmqV8-20" style="edgeStyle=orthogonalEdgeStyle;rounded=0;orthogonalLoop=1;jettySize=auto;html=1;entryX=0.62;entryY=0.165;entryDx=0;entryDy=0;entryPerimeter=0;" edge="1" parent="1" source="NEni8pJmY9ni_NIbmqV8-18" target="NEni8pJmY9ni_NIbmqV8-12">
          <mxGeometry relative="1" as="geometry" />
        </mxCell>
        <mxCell id="oitGwTNRk-InASJFJmFo-15" style="edgeStyle=orthogonalEdgeStyle;rounded=0;orthogonalLoop=1;jettySize=auto;html=1;entryX=0;entryY=0.5;entryDx=0;entryDy=0;" edge="1" parent="1" source="NEni8pJmY9ni_NIbmqV8-24" target="oitGwTNRk-InASJFJmFo-9">
          <mxGeometry relative="1" as="geometry" />
        </mxCell>
        <mxCell id="oitGwTNRk-InASJFJmFo-19" style="edgeStyle=orthogonalEdgeStyle;rounded=0;orthogonalLoop=1;jettySize=auto;html=1;entryX=0.5;entryY=0;entryDx=0;entryDy=0;" edge="1" parent="1" source="NEni8pJmY9ni_NIbmqV8-24" target="oitGwTNRk-InASJFJmFo-18">
          <mxGeometry relative="1" as="geometry" />
        </mxCell>
        <mxCell id="NEni8pJmY9ni_NIbmqV8-24" value="nomeCompleto = nome + &quot;&amp;nbsp; &quot; + sobrenome" style="rounded=0;whiteSpace=wrap;html=1;" vertex="1" parent="1">
          <mxGeometry x="427.5" y="950" width="265" height="50" as="geometry" />
        </mxCell>
        <mxCell id="NEni8pJmY9ni_NIbmqV8-25" style="edgeStyle=orthogonalEdgeStyle;rounded=0;orthogonalLoop=1;jettySize=auto;html=1;entryX=0.462;entryY=0.02;entryDx=0;entryDy=0;entryPerimeter=0;" edge="1" parent="1" source="NEni8pJmY9ni_NIbmqV8-12" target="NEni8pJmY9ni_NIbmqV8-24">
          <mxGeometry relative="1" as="geometry" />
        </mxCell>
        <mxCell id="oitGwTNRk-InASJFJmFo-52" style="edgeStyle=orthogonalEdgeStyle;rounded=0;orthogonalLoop=1;jettySize=auto;html=1;" edge="1" parent="1" source="oitGwTNRk-InASJFJmFo-2" target="NEni8pJmY9ni_NIbmqV8-5">
          <mxGeometry relative="1" as="geometry" />
        </mxCell>
        <mxCell id="oitGwTNRk-InASJFJmFo-2" value="inicio" style="rounded=1;whiteSpace=wrap;html=1;" vertex="1" parent="1">
          <mxGeometry x="490" y="180" width="140" height="70" as="geometry" />
        </mxCell>
        <mxCell id="oitGwTNRk-InASJFJmFo-9" value="retrorne nomeCompleto" style="rounded=0;whiteSpace=wrap;html=1;" vertex="1" parent="1">
          <mxGeometry x="780" y="945" width="150" height="60" as="geometry" />
        </mxCell>
        <mxCell id="oitGwTNRk-InASJFJmFo-77" style="edgeStyle=orthogonalEdgeStyle;rounded=0;orthogonalLoop=1;jettySize=auto;html=1;" edge="1" parent="1" source="oitGwTNRk-InASJFJmFo-10" target="oitGwTNRk-InASJFJmFo-11">
          <mxGeometry relative="1" as="geometry" />
        </mxCell>
        <mxCell id="oitGwTNRk-InASJFJmFo-10" value="" style="ellipse;whiteSpace=wrap;html=1;aspect=fixed;" vertex="1" parent="1">
          <mxGeometry x="1080" y="379" width="70" height="70" as="geometry" />
        </mxCell>
        <mxCell id="oitGwTNRk-InASJFJmFo-75" style="edgeStyle=orthogonalEdgeStyle;rounded=0;orthogonalLoop=1;jettySize=auto;html=1;" edge="1" parent="1" source="oitGwTNRk-InASJFJmFo-11">
          <mxGeometry relative="1" as="geometry">
            <mxPoint x="564.9999999999998" y="459.9999999999999" as="targetPoint" />
          </mxGeometry>
        </mxCell>
        <mxCell id="oitGwTNRk-InASJFJmFo-11" value="perguntar()" style="rounded=1;whiteSpace=wrap;html=1;" vertex="1" parent="1">
          <mxGeometry x="500" y="390" width="130" height="50" as="geometry" />
        </mxCell>
        <mxCell id="oitGwTNRk-InASJFJmFo-21" style="edgeStyle=orthogonalEdgeStyle;rounded=0;orthogonalLoop=1;jettySize=auto;html=1;" edge="1" parent="1" source="oitGwTNRk-InASJFJmFo-18" target="oitGwTNRk-InASJFJmFo-20">
          <mxGeometry relative="1" as="geometry" />
        </mxCell>
        <mxCell id="oitGwTNRk-InASJFJmFo-18" value="verificarCaracter()" style="rounded=1;whiteSpace=wrap;html=1;" vertex="1" parent="1">
          <mxGeometry x="500" y="1060" width="120" height="60" as="geometry" />
        </mxCell>
        <mxCell id="oitGwTNRk-InASJFJmFo-23" style="edgeStyle=orthogonalEdgeStyle;rounded=0;orthogonalLoop=1;jettySize=auto;html=1;entryX=0.5;entryY=0;entryDx=0;entryDy=0;" edge="1" parent="1" source="oitGwTNRk-InASJFJmFo-20" target="oitGwTNRk-InASJFJmFo-22">
          <mxGeometry relative="1" as="geometry" />
        </mxCell>
        <mxCell id="oitGwTNRk-InASJFJmFo-20" value="cadeia valor" style="rounded=0;whiteSpace=wrap;html=1;" vertex="1" parent="1">
          <mxGeometry x="500" y="1160" width="120" height="60" as="geometry" />
        </mxCell>
        <mxCell id="oitGwTNRk-InASJFJmFo-27" style="edgeStyle=orthogonalEdgeStyle;rounded=0;orthogonalLoop=1;jettySize=auto;html=1;" edge="1" parent="1" source="oitGwTNRk-InASJFJmFo-22" target="oitGwTNRk-InASJFJmFo-24">
          <mxGeometry relative="1" as="geometry" />
        </mxCell>
        <mxCell id="oitGwTNRk-InASJFJmFo-22" value="inteiro i=0; i&amp;lt;contaCaracteres; i++" style="rounded=0;whiteSpace=wrap;html=1;" vertex="1" parent="1">
          <mxGeometry x="80" y="1241" width="210" height="60" as="geometry" />
        </mxCell>
        <mxCell id="oitGwTNRk-InASJFJmFo-24" value="ti.caracter_e_inteiro(te.obter_caracter(valor, i)) e valida == falso" style="rhombus;whiteSpace=wrap;html=1;" vertex="1" parent="1">
          <mxGeometry x="375" y="1250" width="370" height="170" as="geometry" />
        </mxCell>
        <mxCell id="oitGwTNRk-InASJFJmFo-57" style="edgeStyle=orthogonalEdgeStyle;rounded=0;orthogonalLoop=1;jettySize=auto;html=1;" edge="1" parent="1" source="oitGwTNRk-InASJFJmFo-28" target="oitGwTNRk-InASJFJmFo-10">
          <mxGeometry relative="1" as="geometry" />
        </mxCell>
        <mxCell id="oitGwTNRk-InASJFJmFo-28" value="&amp;nbsp; &amp;nbsp; &amp;nbsp; &amp;nbsp; &amp;nbsp; &amp;nbsp; &amp;nbsp;Caracteres inválidos! Por favor, digite&amp;nbsp; &amp;nbsp; novamente." style="shape=display;whiteSpace=wrap;html=1;" vertex="1" parent="1">
          <mxGeometry x="770" y="1298" width="270" height="74" as="geometry" />
        </mxCell>
        <mxCell id="oitGwTNRk-InASJFJmFo-29" style="edgeStyle=orthogonalEdgeStyle;rounded=0;orthogonalLoop=1;jettySize=auto;html=1;exitX=1;exitY=0.5;exitDx=0;exitDy=0;entryX=0;entryY=0.5;entryDx=0;entryDy=0;entryPerimeter=0;" edge="1" parent="1" source="oitGwTNRk-InASJFJmFo-24" target="oitGwTNRk-InASJFJmFo-28">
          <mxGeometry relative="1" as="geometry" />
        </mxCell>
        <mxCell id="oitGwTNRk-InASJFJmFo-54" style="edgeStyle=orthogonalEdgeStyle;rounded=0;orthogonalLoop=1;jettySize=auto;html=1;entryX=0.456;entryY=-0.007;entryDx=0;entryDy=0;entryPerimeter=0;" edge="1" parent="1" source="NEni8pJmY9ni_NIbmqV8-5" target="oitGwTNRk-InASJFJmFo-11">
          <mxGeometry relative="1" as="geometry" />
        </mxCell>
        <mxCell id="oitGwTNRk-InASJFJmFo-76" style="edgeStyle=orthogonalEdgeStyle;rounded=0;orthogonalLoop=1;jettySize=auto;html=1;" edge="1" parent="1" source="oitGwTNRk-InASJFJmFo-58">
          <mxGeometry relative="1" as="geometry">
            <mxPoint x="564.9999999999998" y="530" as="targetPoint" />
          </mxGeometry>
        </mxCell>
        <mxCell id="oitGwTNRk-InASJFJmFo-58" value="cadeia nomeCompleto" style="rounded=0;whiteSpace=wrap;html=1;" vertex="1" parent="1">
          <mxGeometry x="490" y="460" width="150" height="40" as="geometry" />
        </mxCell>
        <mxCell id="oitGwTNRk-InASJFJmFo-61" style="edgeStyle=orthogonalEdgeStyle;rounded=0;orthogonalLoop=1;jettySize=auto;html=1;entryX=0.543;entryY=0.037;entryDx=0;entryDy=0;entryPerimeter=0;" edge="1" parent="1" source="NEni8pJmY9ni_NIbmqV8-11" target="NEni8pJmY9ni_NIbmqV8-18">
          <mxGeometry relative="1" as="geometry" />
        </mxCell>
        <mxCell id="oitGwTNRk-InASJFJmFo-71" style="edgeStyle=orthogonalEdgeStyle;rounded=0;orthogonalLoop=1;jettySize=auto;html=1;exitX=0.5;exitY=1;exitDx=0;exitDy=0;" edge="1" parent="1" source="oitGwTNRk-InASJFJmFo-11" target="oitGwTNRk-InASJFJmFo-11">
          <mxGeometry relative="1" as="geometry" />
        </mxCell>
      </root>
    </mxGraphModel>
  </diagram>
</mxfile>
